<svg xmlns="http://www.w3.org/2000/svg" width="32" height="32" viewBox="0 0 32 32" fill="none">
    <path d="M28.0038 17.0533C27.794 19.3229 26.9423 21.4859 25.5481 23.2891C24.154 25.0922 22.2751 26.4611 20.1314 27.2354C17.9877 28.0097 15.6678 28.1575 13.4431 27.6615C11.2185 27.1654 9.1811 26.0461 7.56941 24.4344C5.95772 22.8227 4.83836 20.7853 4.34232 18.5607C3.84628 16.336 3.99406 14.0161 4.76839 11.8724C5.54271 9.72868 6.91155 7.84982 8.71473 6.45567C10.5179 5.06152 12.6808 4.20974 14.9504 4C13.6217 5.79769 12.9822 8.0126 13.1485 10.2419C13.3147 12.4712 14.2756 14.5667 15.8563 16.1475C17.437 17.7282 19.5326 18.689 21.7619 18.8553C23.9912 19.0215 26.2061 18.3821 28.0038 17.0533Z" stroke="white" stroke-width="2" stroke-linecap="round" stroke-linejoin="round"/>
</svg>