<svg xmlns="http://www.w3.org/2000/svg" width="24" height="24" viewBox="0 0 24 24" fill="none">
    <path d="M15.2379 10.8101L14.6689 12.5041C14.4574 13.1478 14.0977 13.7329 13.6189 14.2122C13.14 14.6916 12.5554 15.0519 11.9119 15.2641L10.1989 15.8331C10.141 15.8519 10.0905 15.8885 10.0547 15.9377C10.0189 15.987 9.99963 16.0463 9.99963 16.1071C9.99963 16.168 10.0189 16.2273 10.0547 16.2766C10.0905 16.3258 10.141 16.3624 10.1989 16.3811L11.9119 16.9501C12.5495 17.1623 13.1288 17.5203 13.6037 17.9956C14.0787 18.4709 14.4362 19.0504 14.6479 19.6881L15.2159 21.4031C15.2341 21.4616 15.2705 21.5126 15.3198 21.5489C15.3691 21.5852 15.4287 21.6047 15.4899 21.6047C15.5511 21.6047 15.6107 21.5852 15.66 21.5489C15.7093 21.5126 15.7457 21.4616 15.7639 21.4031L16.3539 19.7091C16.5655 19.0715 16.9229 18.4921 17.3977 18.0168C17.8725 17.5415 18.4515 17.1834 19.0889 16.9711L20.8029 16.4021C20.8608 16.3834 20.9113 16.3468 20.9471 16.2976C20.9829 16.2483 21.0022 16.189 21.0022 16.1281C21.0022 16.0673 20.9829 16.008 20.9471 15.9587C20.9113 15.9095 20.8608 15.8729 20.8029 15.8541L19.1109 15.2641C18.4671 15.0526 17.8821 14.6925 17.4031 14.2131C16.9242 13.7336 16.5648 13.1482 16.3539 12.5041L15.7849 10.7891C15.7688 10.7469 15.743 10.709 15.7096 10.6786C15.6762 10.6481 15.6361 10.6258 15.5926 10.6136C15.5491 10.6013 15.5033 10.5994 15.4589 10.6081C15.4145 10.6167 15.3727 10.6355 15.3369 10.6631C15.2897 10.7013 15.2552 10.7519 15.2379 10.8101ZM6.80793 5.89714L6.39493 7.12814C6.24087 7.59628 5.97912 8.02174 5.63072 8.37032C5.28232 8.71889 4.85699 8.98085 4.38893 9.13514L3.14293 9.54914C3.10127 9.56318 3.06508 9.58994 3.03943 9.62564C3.01379 9.66134 3 9.70419 3 9.74814C3 9.7921 3.01379 9.83495 3.03943 9.87065C3.06508 9.90635 3.10127 9.9331 3.14293 9.94714L4.38893 10.3621C4.85258 10.5162 5.27389 10.7762 5.61935 11.1217C5.96482 11.4672 6.22491 11.8885 6.37893 12.3521L6.79193 13.6001C6.80596 13.6418 6.83272 13.678 6.86842 13.7036C6.90412 13.7293 6.94697 13.7431 6.99093 13.7431C7.03488 13.7431 7.07773 13.7293 7.11343 13.7036C7.14913 13.678 7.17589 13.6418 7.18993 13.6001L7.61993 12.3681C7.77464 11.9049 8.03496 11.4839 8.38033 11.1385C8.7257 10.7932 9.14665 10.5329 9.60993 10.3781L10.8549 9.96314C10.8966 9.9491 10.9328 9.92235 10.9584 9.88665C10.9841 9.85095 10.9979 9.8081 10.9979 9.76414C10.9979 9.72019 10.9841 9.67734 10.9584 9.64164C10.9328 9.60594 10.8966 9.57918 10.8549 9.56514L9.62493 9.13514C9.15667 8.98143 8.73117 8.71965 8.38285 8.37098C8.03453 8.02232 7.77317 7.59655 7.61993 7.12814L7.20592 5.88114C7.19029 5.83997 7.16211 5.80475 7.12536 5.78047C7.08862 5.7562 7.04517 5.74409 7.00117 5.74585C6.95716 5.74762 6.91482 5.76318 6.88015 5.79033C6.84547 5.81748 6.8202 5.85485 6.80793 5.89714ZM14.6569 2.47514L14.4499 3.09114C14.3734 3.32539 14.2428 3.53833 14.0688 3.71275C13.8947 3.88717 13.682 4.01817 13.4479 4.09514L12.8249 4.30214C12.8093 4.30722 12.7951 4.31591 12.7835 4.32751C12.7719 4.33911 12.7632 4.3533 12.7582 4.3689C12.7531 4.3845 12.7518 4.40109 12.7544 4.41729C12.7569 4.4335 12.7633 4.44887 12.7729 4.46214C12.7854 4.48057 12.8037 4.4943 12.8249 4.50114L13.4479 4.70814C13.6798 4.78515 13.8904 4.9152 14.0631 5.08793C14.2359 5.26066 14.3659 5.47132 14.4429 5.70314L14.6489 6.32714C14.6557 6.34834 14.6691 6.36682 14.687 6.37994C14.705 6.39306 14.7267 6.40013 14.7489 6.40013C14.7712 6.40013 14.7929 6.39306 14.8108 6.37994C14.8288 6.36682 14.8421 6.34834 14.8489 6.32714L15.0629 5.71114C15.1399 5.47932 15.27 5.26866 15.4427 5.09593C15.6154 4.9232 15.8261 4.79315 16.0579 4.71614L16.6809 4.50914C16.7021 4.50236 16.7206 4.48902 16.7337 4.47104C16.7468 4.45307 16.7539 4.43139 16.7539 4.40914C16.7539 4.38689 16.7468 4.36522 16.7337 4.34724C16.7206 4.32927 16.7021 4.31593 16.6809 4.30914L16.0659 4.09514C15.8316 4.0183 15.6188 3.88737 15.4445 3.71294C15.2703 3.53851 15.1395 3.3255 15.0629 3.09114L14.8559 2.46714C14.8481 2.44656 14.834 2.42895 14.8156 2.41681C14.7973 2.40467 14.7755 2.39861 14.7535 2.3995C14.7315 2.40038 14.7104 2.40816 14.693 2.42174C14.6757 2.43531 14.6631 2.454 14.6569 2.47514Z" stroke="#101635" stroke-width="1.5" stroke-linecap="round" stroke-linejoin="round"/>
</svg>