<?xml version="1.0" encoding="UTF-8"?>
<svg xmlns="http://www.w3.org/2000/svg" xmlns:xlink="http://www.w3.org/1999/xlink" width="174px" height="44px" viewBox="0 0 174 44" version="1.1">
<g id="surface1">
<path style=" stroke:none;fill-rule:nonzero;fill:rgb(57.647061%,49.019608%,92.54902%);fill-opacity:1;" d="M 9.324219 1.824219 C 9.464844 1.824219 9.601562 1.824219 9.742188 1.820312 C 10.195312 1.816406 10.648438 1.816406 11.101562 1.816406 C 11.417969 1.816406 11.738281 1.8125 12.054688 1.8125 C 12.71875 1.808594 13.386719 1.808594 14.050781 1.808594 C 14.894531 1.808594 15.742188 1.804688 16.589844 1.796875 C 17.246094 1.792969 17.902344 1.792969 18.558594 1.792969 C 18.871094 1.792969 19.183594 1.789062 19.496094 1.789062 C 22.839844 1.757812 25.734375 2.4375 28.242188 5.238281 C 28.359375 5.375 28.476562 5.515625 28.601562 5.65625 C 28.753906 5.824219 28.753906 5.824219 28.910156 5.996094 C 30.925781 8.386719 31.59375 11.707031 31.585938 14.9375 C 31.574219 15.792969 31.496094 16.5625 31.3125 17.394531 C 31.203125 17.964844 31.171875 18.214844 31.378906 18.753906 C 31.546875 19.039062 31.722656 19.320312 31.90625 19.59375 C 33.453125 21.910156 33.84375 25.097656 33.554688 27.941406 C 33.050781 31.394531 31.589844 34.316406 29.164062 36.441406 C 27.132812 38.027344 24.894531 38.777344 22.460938 38.773438 C 22.3125 38.777344 22.164062 38.777344 22.011719 38.777344 C 21.527344 38.78125 21.042969 38.78125 20.558594 38.785156 C 20.21875 38.785156 19.878906 38.785156 19.539062 38.789062 C 18.828125 38.789062 18.117188 38.789062 17.40625 38.789062 C 16.5 38.789062 15.59375 38.796875 14.6875 38.800781 C 13.984375 38.808594 13.28125 38.808594 12.582031 38.808594 C 12.246094 38.808594 11.914062 38.808594 11.582031 38.808594 C 9.214844 38.828125 7.078125 38.738281 5.109375 37.019531 C 4.960938 36.898438 4.960938 36.898438 4.8125 36.773438 C 3.417969 35.527344 2.625 33.519531 2.335938 31.539062 C 2.160156 29.070312 2.613281 26.867188 3.96875 24.929688 C 4.046875 24.8125 4.125 24.695312 4.207031 24.578125 C 5.175781 23.300781 6.765625 22.351562 8.210938 22.09375 C 8.621094 22.074219 9.027344 22.0625 9.441406 22.0625 C 9.5625 22.058594 9.679688 22.058594 9.808594 22.058594 C 10.066406 22.054688 10.332031 22.050781 10.59375 22.050781 C 11.007812 22.046875 11.425781 22.042969 11.84375 22.039062 C 13.027344 22.027344 14.210938 22.015625 15.394531 22.003906 C 16.121094 21.996094 16.847656 21.992188 17.570312 21.980469 C 17.847656 21.980469 18.121094 21.976562 18.394531 21.976562 C 21.316406 21.996094 21.316406 21.996094 24.03125 20.902344 C 24.203125 20.792969 24.375 20.683594 24.554688 20.574219 C 25.03125 20.191406 25.3125 19.792969 25.664062 19.261719 C 23.917969 18.628906 22.238281 18.617188 20.421875 18.628906 C 19.902344 18.628906 19.382812 18.628906 18.863281 18.628906 C 17.386719 18.621094 15.90625 18.621094 14.429688 18.625 C 13.523438 18.628906 12.617188 18.625 11.707031 18.621094 C 11.363281 18.617188 11.019531 18.621094 10.679688 18.621094 C 7.945312 18.644531 5.84375 18.324219 3.789062 16.046875 C 2.160156 14.078125 1.761719 11.953125 1.800781 9.304688 C 1.886719 7.132812 2.9375 5.175781 4.277344 3.699219 C 5.769531 2.359375 7.472656 1.824219 9.324219 1.824219 Z M 6.742188 7.734375 C 6.195312 8.539062 5.941406 9.351562 5.925781 10.378906 C 6.117188 11.523438 6.445312 12.273438 7.230469 13.027344 C 7.394531 13.191406 7.394531 13.191406 7.558594 13.355469 C 8.34375 13.921875 9.296875 13.808594 10.191406 13.808594 C 10.339844 13.808594 10.488281 13.808594 10.640625 13.808594 C 10.964844 13.8125 11.289062 13.8125 11.609375 13.8125 C 12.125 13.816406 12.636719 13.816406 13.152344 13.820312 C 14.609375 13.832031 16.070312 13.839844 17.53125 13.84375 C 18.421875 13.847656 19.316406 13.851562 20.210938 13.859375 C 20.546875 13.859375 20.886719 13.863281 21.226562 13.859375 C 23.203125 13.859375 24.921875 14.007812 26.804688 14.726562 C 27.023438 14.792969 27.242188 14.855469 27.457031 14.914062 C 27.378906 12.308594 26.824219 10.308594 25.160156 8.496094 C 23.714844 7.109375 22.179688 6.574219 20.328125 6.574219 C 20.203125 6.574219 20.078125 6.574219 19.949219 6.574219 C 19.539062 6.570312 19.132812 6.570312 18.722656 6.570312 C 18.4375 6.570312 18.152344 6.570312 17.867188 6.566406 C 17.269531 6.566406 16.667969 6.566406 16.074219 6.566406 C 15.308594 6.566406 14.542969 6.566406 13.777344 6.5625 C 13.1875 6.558594 12.601562 6.558594 12.011719 6.558594 C 11.730469 6.558594 11.445312 6.558594 11.164062 6.558594 C 10.769531 6.554688 10.375 6.554688 9.980469 6.558594 C 9.863281 6.554688 9.75 6.554688 9.628906 6.554688 C 8.492188 6.5625 7.628906 6.910156 6.742188 7.734375 Z M 28.601562 22.851562 C 28.457031 23.035156 28.320312 23.222656 28.171875 23.417969 C 26.347656 25.519531 23.65625 26.65625 21.117188 26.660156 C 20.992188 26.660156 20.863281 26.660156 20.734375 26.660156 C 20.457031 26.664062 20.183594 26.664062 19.90625 26.667969 C 19.472656 26.667969 19.035156 26.671875 18.601562 26.675781 C 17.363281 26.6875 16.125 26.699219 14.886719 26.703125 C 14.128906 26.707031 13.371094 26.714844 12.613281 26.722656 C 12.324219 26.726562 12.035156 26.730469 11.75 26.730469 C 11.34375 26.730469 10.941406 26.734375 10.535156 26.738281 C 10.359375 26.738281 10.359375 26.738281 10.179688 26.734375 C 9.128906 26.757812 8.246094 27.042969 7.425781 27.820312 C 6.722656 28.820312 6.484375 29.609375 6.523438 30.886719 C 6.644531 31.886719 7.074219 32.488281 7.679688 33.203125 C 8.660156 33.96875 9.699219 34.054688 10.855469 34.050781 C 10.980469 34.050781 11.109375 34.050781 11.238281 34.050781 C 11.65625 34.054688 12.070312 34.054688 12.488281 34.054688 C 12.78125 34.054688 13.074219 34.054688 13.367188 34.054688 C 13.976562 34.058594 14.589844 34.058594 15.203125 34.058594 C 15.980469 34.054688 16.761719 34.058594 17.539062 34.0625 C 18.144531 34.066406 18.746094 34.066406 19.351562 34.066406 C 19.636719 34.066406 19.925781 34.066406 20.210938 34.070312 C 22.746094 34.082031 25.347656 33.976562 27.339844 31.910156 C 28.734375 30.207031 29.5 28.15625 29.457031 25.808594 C 29.371094 24.792969 29.238281 23.589844 28.601562 22.851562 Z M 28.601562 22.851562 "/>
<path style=" stroke:none;fill-rule:nonzero;fill:rgb(98.039216%,98.039216%,98.039216%);fill-opacity:1;" d="M 165.421875 13.636719 C 167.554688 15.761719 168.632812 18.296875 168.890625 21.523438 C 168.960938 24.605469 168.113281 27.277344 166.292969 29.53125 C 164.300781 31.894531 161.804688 33.066406 158.96875 33.105469 C 156.613281 33.09375 154.589844 32.304688 152.738281 30.59375 C 152.6875 33.648438 152.632812 36.703125 152.578125 39.851562 C 149.476562 41.550781 149.476562 41.550781 149.152344 41.550781 C 149.136719 38.867188 149.125 36.179688 149.117188 33.496094 C 149.113281 32.246094 149.109375 31 149.101562 29.753906 C 149.09375 28.546875 149.089844 27.34375 149.089844 26.136719 C 149.085938 25.679688 149.085938 25.222656 149.082031 24.761719 C 149.050781 20.652344 149.335938 17.519531 151.867188 14.40625 C 155.53125 10.199219 161.390625 10 165.421875 13.636719 Z M 154.050781 17.378906 C 152.875 18.992188 152.453125 20.667969 152.515625 22.765625 C 152.71875 24.949219 153.648438 26.300781 155.035156 27.730469 C 156.425781 29.019531 158 29.398438 159.753906 29.269531 C 161.714844 28.964844 163.167969 27.820312 164.425781 26.0625 C 165.398438 24.414062 165.640625 22.472656 165.371094 20.53125 C 164.933594 18.5 163.875 16.964844 162.363281 15.855469 C 159.546875 14.082031 156.253906 14.699219 154.050781 17.378906 Z M 154.050781 17.378906 "/>
<path style=" stroke:none;fill-rule:nonzero;fill:rgb(98.039216%,98.039216%,98.039216%);fill-opacity:1;" d="M 51.402344 13.269531 C 53.441406 15.179688 54.78125 17.53125 55.191406 20.578125 C 55.203125 21.058594 55.210938 21.539062 55.210938 22.019531 C 55.210938 22.390625 55.210938 22.390625 55.210938 22.769531 C 55.191406 23.414062 55.191406 23.414062 55.027344 23.980469 C 49.804688 23.980469 44.582031 23.980469 39.203125 23.980469 C 40.332031 26.59375 41.160156 27.851562 43.445312 28.84375 C 45.074219 29.414062 46.882812 29.210938 48.382812 28.285156 C 48.816406 27.980469 49.222656 27.667969 49.601562 27.273438 C 50.074219 26.925781 50.371094 26.9375 50.925781 26.945312 C 51.109375 26.949219 51.289062 26.949219 51.476562 26.953125 C 51.667969 26.957031 51.855469 26.960938 52.050781 26.964844 C 52.242188 26.96875 52.433594 26.972656 52.628906 26.972656 C 53.105469 26.980469 53.574219 26.992188 54.046875 27.003906 C 53.246094 29.398438 51.628906 31.019531 49.644531 32.101562 C 46.914062 33.269531 44.027344 33.523438 41.28125 32.230469 C 38.910156 30.921875 37.070312 28.882812 36.058594 26.03125 C 35.222656 23.144531 35.242188 20.132812 36.34375 17.34375 C 37.636719 14.53125 39.71875 12.453125 42.355469 11.503906 C 45.449219 10.621094 48.789062 11.015625 51.402344 13.269531 Z M 39.941406 18.050781 C 39.578125 18.667969 39.578125 18.667969 39.203125 20.199219 C 43.242188 20.199219 47.277344 20.199219 51.4375 20.199219 C 51.179688 18.394531 50.316406 17.199219 49.046875 16.132812 C 45.777344 13.757812 42.433594 14.9375 39.941406 18.050781 Z M 39.941406 18.050781 "/>
<path style=" stroke:none;fill-rule:nonzero;fill:rgb(98.039216%,98.039216%,98.039216%);fill-opacity:1;" d="M 100.539062 13.019531 C 102.660156 14.851562 104.191406 17.3125 104.617188 20.386719 C 104.628906 20.722656 104.632812 21.058594 104.628906 21.390625 C 104.625 21.558594 104.625 21.726562 104.625 21.898438 C 104.621094 22.023438 104.617188 22.148438 104.617188 22.277344 C 104.453125 22.214844 104.289062 22.152344 104.117188 22.089844 C 103.074219 21.746094 102.203125 21.894531 101.191406 22.277344 C 101.175781 22.136719 101.164062 21.992188 101.148438 21.847656 C 100.90625 19.789062 100.304688 17.949219 98.851562 16.644531 C 97.148438 15.285156 95.394531 14.84375 93.363281 15.238281 C 91.703125 15.671875 90.285156 16.75 89.335938 18.410156 C 89.125 18.871094 88.953125 19.332031 88.792969 19.820312 C 88.730469 20.003906 88.730469 20.003906 88.667969 20.191406 C 88.222656 21.789062 88.460938 23.71875 89.054688 25.222656 C 90 27.105469 91.308594 28.144531 93.035156 28.890625 C 95.054688 29.3125 96.9375 29.03125 98.691406 27.734375 C 99.261719 27.195312 99.6875 26.554688 100.117188 25.863281 C 100.203125 25.738281 100.289062 25.617188 100.375 25.488281 C 100.484375 25.488281 100.589844 25.488281 100.703125 25.488281 C 100.742188 26.25 100.773438 27.007812 100.792969 27.769531 C 100.800781 28.027344 100.8125 28.285156 100.824219 28.542969 C 100.871094 29.382812 100.878906 30.148438 100.703125 30.96875 C 100.226562 31.554688 99.71875 31.824219 99.070312 32.101562 C 98.886719 32.191406 98.703125 32.277344 98.511719 32.371094 C 98.355469 32.425781 98.203125 32.480469 98.042969 32.539062 C 97.804688 32.625 97.804688 32.625 97.5625 32.714844 C 94.976562 33.542969 92.078125 33.140625 89.730469 31.65625 C 87.351562 30.003906 85.875 27.640625 85.117188 24.570312 C 84.605469 21.859375 85 18.90625 86.175781 16.527344 C 86.570312 15.8125 86.984375 15.148438 87.488281 14.53125 C 87.597656 14.53125 87.703125 14.53125 87.816406 14.53125 C 87.816406 14.40625 87.816406 14.28125 87.816406 14.152344 C 91.402344 10.625 96.519531 9.9375 100.539062 13.019531 Z M 100.539062 13.019531 "/>
<path style=" stroke:none;fill-rule:nonzero;fill:rgb(98.039216%,98.039216%,98.039216%);fill-opacity:1;" d="M 131.695312 11.128906 C 132.828125 11.128906 133.957031 11.128906 135.121094 11.128906 C 135.125 11.5625 135.125 11.996094 135.128906 12.441406 C 135.132812 13.875 135.140625 15.308594 135.152344 16.742188 C 135.160156 17.609375 135.164062 18.480469 135.167969 19.347656 C 135.167969 20.1875 135.175781 21.027344 135.183594 21.867188 C 135.183594 22.183594 135.1875 22.503906 135.1875 22.824219 C 135.179688 25.394531 135.179688 25.394531 136.234375 27.605469 C 137.246094 28.613281 138.304688 29.214844 139.671875 29.144531 C 140.894531 28.910156 141.972656 28.261719 142.789062 27.1875 C 143.675781 25.703125 143.539062 23.90625 143.542969 22.183594 C 143.542969 21.863281 143.546875 21.542969 143.550781 21.222656 C 143.554688 20.386719 143.558594 19.554688 143.5625 18.714844 C 143.566406 17.863281 143.570312 17.007812 143.578125 16.152344 C 143.589844 14.476562 143.597656 12.804688 143.605469 11.128906 C 144.734375 11.128906 145.867188 11.128906 147.03125 11.128906 C 147.046875 12.984375 147.054688 14.839844 147.066406 16.695312 C 147.066406 17.554688 147.074219 18.414062 147.078125 19.277344 C 147.085938 20.109375 147.089844 20.945312 147.09375 21.777344 C 147.09375 22.09375 147.097656 22.40625 147.097656 22.726562 C 147.132812 25.828125 146.664062 28.285156 144.796875 30.625 C 143.265625 32.316406 141.34375 33.058594 139.25 33.105469 C 136.859375 33.023438 135.160156 32.007812 133.492188 30.023438 C 132.238281 28.425781 131.667969 26.5625 131.679688 24.429688 C 131.679688 24.285156 131.679688 24.140625 131.679688 23.992188 C 131.679688 23.519531 131.679688 23.042969 131.679688 22.570312 C 131.679688 22.238281 131.683594 21.910156 131.683594 21.582031 C 131.683594 20.714844 131.683594 19.847656 131.683594 18.984375 C 131.6875 18.101562 131.6875 17.214844 131.6875 16.332031 C 131.691406 14.597656 131.695312 12.863281 131.695312 11.128906 Z M 131.695312 11.128906 "/>
<path style=" stroke:none;fill-rule:nonzero;fill:rgb(98.039216%,98.039216%,98.039216%);fill-opacity:1;" d="M 70.109375 11.988281 C 71.179688 12.902344 72.019531 13.941406 72.320312 15.480469 C 72.320312 15.980469 72.320312 16.476562 72.320312 16.992188 C 71.242188 16.992188 70.164062 16.992188 69.054688 16.992188 C 68.566406 15.859375 68.566406 15.859375 68.402344 15.292969 C 67.832031 15.011719 67.21875 15.039062 66.609375 15.101562 C 66.160156 15.441406 65.871094 15.679688 65.628906 16.238281 C 65.546875 16.949219 65.585938 17.285156 65.914062 17.90625 C 66.703125 18.953125 67.996094 19.351562 69.074219 19.871094 C 70.632812 20.652344 72.171875 21.707031 72.863281 23.597656 C 73.40625 25.511719 73.421875 27.179688 72.808594 29.082031 C 71.992188 30.933594 70.742188 32.179688 69.054688 32.863281 C 67.613281 33.378906 65.859375 33.171875 64.488281 32.484375 C 62.878906 31.398438 61.726562 30.050781 61.226562 27.949219 C 61.226562 27.390625 61.226562 26.828125 61.226562 26.25 C 62.300781 26.25 63.378906 26.25 64.488281 26.25 C 64.703125 26.8125 64.917969 27.371094 65.140625 27.949219 C 65.769531 28.765625 66.300781 29.046875 67.222656 29.109375 C 68.046875 29.050781 68.589844 28.660156 69.199219 28.042969 C 69.753906 27.285156 69.765625 26.65625 69.707031 25.683594 C 69.273438 24.394531 68.097656 23.667969 67.054688 23.132812 C 66.59375 22.90625 66.128906 22.683594 65.667969 22.464844 C 64.050781 21.660156 62.875 20.601562 62.203125 18.691406 C 61.773438 17.191406 61.964844 15.605469 62.503906 14.179688 C 62.703125 13.757812 62.910156 13.390625 63.183594 13.023438 C 63.292969 13.023438 63.398438 13.023438 63.507812 13.023438 C 63.507812 12.898438 63.507812 12.773438 63.507812 12.648438 C 65.460938 10.976562 67.964844 10.457031 70.109375 11.988281 Z M 70.109375 11.988281 "/>
<path style=" stroke:none;fill-rule:nonzero;fill:rgb(98.039216%,98.039216%,98.039216%);fill-opacity:1;" d="M 76.722656 5.085938 C 77.824219 5.511719 77.824219 5.511719 78.332031 5.792969 C 78.429688 5.84375 78.527344 5.898438 78.625 5.949219 C 78.746094 6.015625 78.863281 6.082031 78.988281 6.148438 C 79.371094 6.359375 79.753906 6.570312 80.148438 6.789062 C 80.148438 8.285156 80.148438 9.78125 80.148438 11.320312 C 81.007812 11.320312 81.871094 11.320312 82.757812 11.320312 C 82.757812 12.507812 82.757812 13.691406 82.757812 14.910156 C 81.898438 14.910156 81.035156 14.910156 80.148438 14.910156 C 80.15625 16.390625 80.164062 17.863281 80.175781 19.34375 C 80.183594 20.027344 80.191406 20.710938 80.191406 21.398438 C 80.195312 22.0625 80.199219 22.722656 80.207031 23.386719 C 80.210938 23.761719 80.210938 24.132812 80.210938 24.507812 C 80.234375 25.96875 80.304688 27.128906 81.203125 28.246094 C 82.0625 29.164062 83.28125 29.136719 84.390625 29.269531 C 84.390625 30.515625 84.390625 31.765625 84.390625 33.046875 C 82.128906 33.109375 80.277344 32.804688 78.558594 30.960938 C 77.316406 29.4375 76.699219 27.691406 76.707031 25.613281 C 76.707031 25.375 76.707031 25.136719 76.707031 24.894531 C 76.707031 24.632812 76.707031 24.375 76.707031 24.117188 C 76.707031 23.855469 76.707031 23.585938 76.707031 23.320312 C 76.707031 22.625 76.710938 21.929688 76.710938 21.230469 C 76.710938 20.519531 76.714844 19.808594 76.714844 19.097656 C 76.714844 17.703125 76.71875 16.304688 76.722656 14.910156 C 75.914062 14.910156 75.109375 14.910156 74.277344 14.910156 C 74.277344 13.726562 74.277344 12.542969 74.277344 11.320312 C 75.082031 11.320312 75.890625 11.320312 76.722656 11.320312 C 76.722656 9.265625 76.722656 7.207031 76.722656 5.085938 Z M 76.722656 5.085938 "/>
<path style=" stroke:none;fill-rule:nonzero;fill:rgb(98.039216%,98.039216%,98.039216%);fill-opacity:1;" d="M 121.910156 5.085938 C 123.011719 5.511719 123.011719 5.511719 123.519531 5.792969 C 123.613281 5.84375 123.714844 5.898438 123.8125 5.949219 C 123.933594 6.015625 124.050781 6.082031 124.171875 6.148438 C 124.558594 6.359375 124.941406 6.570312 125.335938 6.789062 C 125.335938 8.285156 125.335938 9.78125 125.335938 11.320312 C 126.195312 11.320312 127.058594 11.320312 127.945312 11.320312 C 127.945312 12.507812 127.945312 13.691406 127.945312 14.910156 C 127.082031 14.910156 126.222656 14.910156 125.335938 14.910156 C 125.339844 16.390625 125.351562 17.863281 125.363281 19.34375 C 125.371094 20.027344 125.378906 20.710938 125.378906 21.398438 C 125.382812 22.0625 125.386719 22.722656 125.394531 23.386719 C 125.398438 23.761719 125.398438 24.132812 125.398438 24.507812 C 125.417969 25.96875 125.492188 27.128906 126.386719 28.246094 C 127.25 29.164062 128.46875 29.136719 129.574219 29.269531 C 129.574219 30.515625 129.574219 31.765625 129.574219 33.046875 C 127.304688 33.109375 125.445312 32.804688 123.734375 30.921875 C 122.058594 28.859375 121.859375 26.800781 121.875 24.0625 C 121.878906 23.796875 121.878906 23.535156 121.878906 23.269531 C 121.878906 22.578125 121.882812 21.886719 121.886719 21.195312 C 121.890625 20.484375 121.890625 19.777344 121.894531 19.066406 C 121.894531 17.683594 121.902344 16.296875 121.910156 14.910156 C 121.101562 14.910156 120.292969 14.910156 119.460938 14.910156 C 119.460938 13.726562 119.460938 12.542969 119.460938 11.320312 C 120.269531 11.320312 121.078125 11.320312 121.910156 11.320312 C 121.910156 9.265625 121.910156 7.207031 121.910156 5.085938 Z M 121.910156 5.085938 "/>
<path style=" stroke:none;fill-rule:nonzero;fill:rgb(98.039216%,98.039216%,98.039216%);fill-opacity:1;" d="M 117.503906 11.128906 C 117.503906 12.378906 117.503906 13.625 117.503906 14.910156 C 116.949219 15.015625 116.949219 15.015625 116.382812 15.121094 C 114.722656 15.480469 113.332031 16.363281 112.285156 17.933594 C 111.230469 19.914062 111.09375 21.757812 111.074219 24.042969 C 111.074219 24.300781 111.070312 24.5625 111.066406 24.824219 C 111.058594 25.503906 111.050781 26.1875 111.042969 26.867188 C 111.039062 27.5625 111.03125 28.257812 111.023438 28.957031 C 111.007812 30.320312 110.992188 31.683594 110.980469 33.046875 C 110.589844 33.296875 110.199219 33.542969 109.808594 33.789062 C 109.699219 33.859375 109.589844 33.929688 109.472656 34.003906 C 108.898438 34.367188 108.382812 34.679688 107.71875 34.746094 C 107.421875 34.40625 107.53125 33.894531 107.53125 33.4375 C 107.53125 33.199219 107.527344 32.960938 107.527344 32.710938 C 107.527344 32.445312 107.527344 32.183594 107.527344 31.917969 C 107.527344 31.644531 107.527344 31.375 107.523438 31.101562 C 107.523438 30.527344 107.523438 29.957031 107.523438 29.382812 C 107.523438 28.65625 107.519531 27.929688 107.519531 27.203125 C 107.515625 26.640625 107.515625 26.078125 107.515625 25.511719 C 107.515625 25.246094 107.515625 24.980469 107.515625 24.710938 C 107.5 21.089844 107.730469 17.941406 109.839844 15.097656 C 109.933594 14.945312 110.03125 14.792969 110.132812 14.636719 C 110.5625 14.054688 111.03125 13.636719 111.570312 13.199219 C 111.671875 13.113281 111.773438 13.03125 111.878906 12.945312 C 113.636719 11.546875 115.382812 11.128906 117.503906 11.128906 Z M 117.503906 11.128906 "/>
<path style=" stroke:none;fill-rule:nonzero;fill:rgb(98.039216%,98.039216%,98.039216%);fill-opacity:1;" d="M 104.617188 27.191406 C 104.617188 29.496094 104.617188 31.804688 104.617188 34.179688 C 103.515625 33.753906 103.515625 33.753906 103.007812 33.476562 C 102.910156 33.421875 102.8125 33.371094 102.714844 33.316406 C 102.59375 33.25 102.476562 33.183594 102.355469 33.121094 C 101.96875 32.90625 101.585938 32.699219 101.191406 32.480469 C 101.191406 30.796875 101.191406 29.113281 101.191406 27.378906 C 102.160156 27.566406 102.160156 27.566406 103.148438 27.757812 C 103.507812 27.632812 104.238281 27.191406 104.617188 27.191406 Z M 104.617188 27.191406 "/>
<path style=" stroke:none;fill-rule:nonzero;fill:rgb(38.431373%,61.960787%,94.117647%);fill-opacity:1;" d="M 27.296875 12.644531 C 28.695312 12.644531 30.09375 12.644531 31.535156 12.644531 C 31.535156 13.390625 31.535156 14.140625 31.535156 14.910156 C 30.300781 14.910156 29.0625 14.910156 27.785156 14.910156 C 27.730469 15.035156 27.675781 15.160156 27.621094 15.289062 C 27.339844 14.289062 27.296875 13.769531 27.296875 12.644531 Z M 27.296875 12.644531 "/>
<path style=" stroke:none;fill-rule:nonzero;fill:rgb(28.627452%,88.235295%,92.941177%);fill-opacity:1;" d="M 103.476562 23.035156 C 103.925781 23.375 104.214844 23.609375 104.453125 24.167969 C 104.515625 24.914062 104.511719 25.363281 104.210938 26.035156 C 103.664062 26.570312 103.207031 26.683594 102.496094 26.625 C 101.90625 26.328125 101.714844 26.117188 101.355469 25.492188 C 101.242188 24.144531 101.242188 24.144531 101.660156 23.519531 C 102.285156 22.988281 102.699219 22.960938 103.476562 23.035156 Z M 103.476562 23.035156 "/>
<path style=" stroke:none;fill-rule:nonzero;fill:rgb(98.039216%,98.039216%,98.039216%);fill-opacity:1;" d="M 171.171875 12.832031 C 171.625 13.242188 171.898438 13.5625 172.152344 14.152344 C 172.214844 15.097656 172.167969 15.664062 171.664062 16.421875 C 171.007812 16.925781 170.476562 16.929688 169.703125 16.796875 C 169.238281 16.460938 168.972656 16.234375 168.726562 15.664062 C 168.636719 14.789062 168.621094 14.15625 169.03125 13.398438 C 169.671875 12.703125 170.328125 12.675781 171.171875 12.832031 Z M 170.03125 13.398438 C 170.03125 13.460938 170.03125 13.523438 170.03125 13.585938 C 170.300781 13.585938 170.570312 13.585938 170.847656 13.585938 C 170.847656 13.523438 170.847656 13.460938 170.847656 13.398438 C 170.578125 13.398438 170.308594 13.398438 170.03125 13.398438 Z M 170.847656 13.585938 C 170.878906 13.796875 170.90625 14.007812 170.9375 14.226562 C 171.011719 14.910156 171.011719 14.910156 170.847656 15.285156 C 171.007812 15.472656 171.167969 15.660156 171.335938 15.851562 C 171.71875 15.308594 171.71875 15.308594 171.644531 14.613281 C 171.5625 13.949219 171.5625 13.949219 171.164062 13.691406 C 171.058594 13.65625 170.953125 13.621094 170.847656 13.585938 Z M 169.542969 13.773438 C 169.167969 14.128906 169.167969 14.128906 169.164062 14.707031 C 169.167969 15.351562 169.167969 15.351562 169.703125 15.851562 C 169.703125 15.167969 169.703125 14.480469 169.703125 13.773438 C 169.652344 13.773438 169.597656 13.773438 169.542969 13.773438 Z M 170.195312 14.152344 C 170.195312 14.339844 170.195312 14.527344 170.195312 14.71875 C 170.410156 14.65625 170.625 14.59375 170.847656 14.53125 C 170.847656 14.40625 170.847656 14.28125 170.847656 14.152344 C 170.632812 14.152344 170.414062 14.152344 170.195312 14.152344 Z M 170.195312 15.097656 C 170.140625 15.472656 170.085938 15.847656 170.03125 16.230469 C 170.300781 16.230469 170.570312 16.230469 170.847656 16.230469 C 170.6875 15.855469 170.523438 15.484375 170.355469 15.097656 C 170.304688 15.097656 170.25 15.097656 170.195312 15.097656 Z M 170.195312 15.097656 "/>
<path style=" stroke:none;fill-rule:nonzero;fill:rgb(49.019608%,36.078432%,95.294118%);fill-opacity:1;" d="M 26.804688 10.945312 C 28.257812 10.945312 29.714844 10.945312 31.210938 10.945312 C 31.265625 11.507812 31.316406 12.066406 31.375 12.644531 C 29.972656 12.644531 28.574219 12.644531 27.132812 12.644531 C 27.023438 12.085938 26.917969 11.523438 26.804688 10.945312 Z M 26.804688 10.945312 "/>
<path style=" stroke:none;fill-rule:nonzero;fill:rgb(72.941178%,18.039216%,91.37255%);fill-opacity:1;" d="M 25.664062 19.449219 C 26.675781 19.523438 27.273438 20.351562 27.949219 21.148438 C 28.25 21.578125 28.503906 22.007812 28.765625 22.472656 C 28.539062 23.128906 28.335938 23.320312 27.785156 23.605469 C 27.664062 23.285156 27.664062 23.285156 27.539062 22.957031 C 27.015625 21.730469 26.171875 20.78125 25.339844 19.828125 C 25.445312 19.703125 25.554688 19.578125 25.664062 19.449219 Z M 25.664062 19.449219 "/>
<path style=" stroke:none;fill-rule:nonzero;fill:rgb(43.137255%,49.803922%,94.509804%);fill-opacity:1;" d="M 27.132812 11.886719 C 28.53125 11.886719 29.933594 11.886719 31.375 11.886719 C 31.375 12.136719 31.375 12.386719 31.375 12.644531 C 29.976562 12.644531 28.574219 12.644531 27.132812 12.644531 C 27.132812 12.394531 27.132812 12.144531 27.132812 11.886719 Z M 27.132812 11.886719 "/>
<path style=" stroke:none;fill-rule:nonzero;fill:rgb(28.235295%,86.274511%,92.941177%);fill-opacity:1;" d="M 27.457031 14.15625 C 28.804688 14.15625 30.152344 14.15625 31.535156 14.15625 C 31.535156 14.40625 31.535156 14.65625 31.535156 14.910156 C 30.300781 14.910156 29.0625 14.910156 27.785156 14.910156 C 27.730469 15.035156 27.675781 15.160156 27.621094 15.289062 C 27.566406 15.226562 27.515625 15.164062 27.457031 15.101562 C 27.457031 14.789062 27.457031 14.476562 27.457031 14.15625 Z M 27.457031 14.15625 "/>
<path style=" stroke:none;fill-rule:nonzero;fill:rgb(33.333334%,74.117649%,93.725491%);fill-opacity:1;" d="M 27.296875 13.398438 C 28.695312 13.398438 30.09375 13.398438 31.535156 13.398438 C 31.535156 13.648438 31.535156 13.898438 31.535156 14.15625 C 30.191406 14.15625 28.84375 14.15625 27.457031 14.15625 C 27.40625 13.90625 27.351562 13.65625 27.296875 13.398438 Z M 27.296875 13.398438 "/>
<path style=" stroke:none;fill-rule:nonzero;fill:rgb(44.705883%,72.549021%,92.156863%);fill-opacity:1;" d="M 103.3125 23.222656 C 103.964844 23.414062 103.964844 23.414062 104.25 23.71875 C 104.539062 24.355469 104.53125 24.785156 104.453125 25.492188 C 104.160156 26.046875 104.160156 26.046875 103.800781 26.433594 C 103.640625 26.433594 103.480469 26.433594 103.3125 26.433594 C 103.3125 25.375 103.3125 24.316406 103.3125 23.222656 Z M 103.3125 23.222656 "/>
<path style=" stroke:none;fill-rule:nonzero;fill:rgb(36.470589%,81.176472%,92.54902%);fill-opacity:1;" d="M 102.496094 23.039062 C 102.820312 23.039062 103.144531 23.039062 103.476562 23.039062 C 103.421875 24.222656 103.367188 25.40625 103.3125 26.628906 C 103.042969 26.628906 102.773438 26.628906 102.496094 26.628906 C 102.496094 25.441406 102.496094 24.257812 102.496094 23.039062 Z M 102.496094 23.039062 "/>
<path style=" stroke:none;fill-rule:nonzero;fill:rgb(50.980395%,65.490198%,92.156863%);fill-opacity:1;" d="M 103.800781 23.417969 C 104.453125 24.171875 104.453125 24.171875 104.535156 24.832031 C 104.453125 25.496094 104.453125 25.496094 103.800781 26.25 C 103.800781 25.316406 103.800781 24.378906 103.800781 23.417969 Z M 103.800781 23.417969 "/>
</g>
</svg>
